<mxfile host="app.diagrams.net" agent="Mozilla/5.0 (Windows NT 10.0; Win64; x64) AppleWebKit/537.36 (KHTML, like Gecko) Chrome/131.0.0.0 Safari/537.36 Edg/131.0.0.0" version="25.0.3">
  <diagram id="C5RBs43oDa-KdzZeNtuy" name="Page-1">
    <mxGraphModel dx="1554" dy="398" grid="1" gridSize="10" guides="1" tooltips="1" connect="1" arrows="1" fold="1" page="1" pageScale="1" pageWidth="827" pageHeight="1169" math="0" shadow="0">
      <root>
        <mxCell id="WIyWlLk6GJQsqaUBKTNV-0" />
        <mxCell id="WIyWlLk6GJQsqaUBKTNV-1" parent="WIyWlLk6GJQsqaUBKTNV-0" />
        <mxCell id="mvioNwK95yMqdUQ73LqQ-36" value="" style="swimlane;fontFamily=Sarabun;fontSource=https%3A%2F%2Ffonts.googleapis.com%2Fcss%3Ffamily%3DSarabun;" parent="WIyWlLk6GJQsqaUBKTNV-1" vertex="1">
          <mxGeometry x="-740" y="60" width="1270" height="1670" as="geometry" />
        </mxCell>
        <mxCell id="pXdczCPLqUhGzNIIeVMN-3" style="edgeStyle=orthogonalEdgeStyle;rounded=0;orthogonalLoop=1;jettySize=auto;html=1;" parent="mvioNwK95yMqdUQ73LqQ-36" source="mvioNwK95yMqdUQ73LqQ-35" edge="1">
          <mxGeometry relative="1" as="geometry">
            <mxPoint x="320" y="130" as="targetPoint" />
          </mxGeometry>
        </mxCell>
        <mxCell id="mvioNwK95yMqdUQ73LqQ-35" value="&lt;font data-font-src=&quot;https://fonts.googleapis.com/css?family=Sarabun&quot; face=&quot;Sarabun&quot;&gt;Start&lt;/font&gt;" style="ellipse;whiteSpace=wrap;html=1;" parent="mvioNwK95yMqdUQ73LqQ-36" vertex="1">
          <mxGeometry x="255" y="40" width="130" height="30" as="geometry" />
        </mxCell>
        <mxCell id="LV1sZ-8iKnYQwLrWcCL2-1" style="edgeStyle=orthogonalEdgeStyle;rounded=0;orthogonalLoop=1;jettySize=auto;html=1;" edge="1" parent="mvioNwK95yMqdUQ73LqQ-36" source="LV1sZ-8iKnYQwLrWcCL2-0">
          <mxGeometry relative="1" as="geometry">
            <mxPoint x="320" y="250" as="targetPoint" />
          </mxGeometry>
        </mxCell>
        <mxCell id="LV1sZ-8iKnYQwLrWcCL2-0" value="Declare &amp;amp; Init&lt;div&gt;7, 4, 1, 8, 3, 2 in array is int&lt;/div&gt;" style="rounded=0;whiteSpace=wrap;html=1;" vertex="1" parent="mvioNwK95yMqdUQ73LqQ-36">
          <mxGeometry x="215" y="130" width="210" height="60" as="geometry" />
        </mxCell>
        <mxCell id="LV1sZ-8iKnYQwLrWcCL2-3" style="edgeStyle=orthogonalEdgeStyle;rounded=0;orthogonalLoop=1;jettySize=auto;html=1;" edge="1" parent="mvioNwK95yMqdUQ73LqQ-36" source="LV1sZ-8iKnYQwLrWcCL2-2">
          <mxGeometry relative="1" as="geometry">
            <mxPoint x="320" y="420" as="targetPoint" />
          </mxGeometry>
        </mxCell>
        <mxCell id="LV1sZ-8iKnYQwLrWcCL2-2" value="SequentialSearch(data,6,8)" style="shape=process;whiteSpace=wrap;html=1;backgroundOutline=1;" vertex="1" parent="mvioNwK95yMqdUQ73LqQ-36">
          <mxGeometry x="230" y="250" width="180" height="60" as="geometry" />
        </mxCell>
        <mxCell id="LV1sZ-8iKnYQwLrWcCL2-50" style="edgeStyle=orthogonalEdgeStyle;rounded=0;orthogonalLoop=1;jettySize=auto;html=1;" edge="1" parent="mvioNwK95yMqdUQ73LqQ-36" source="LV1sZ-8iKnYQwLrWcCL2-4">
          <mxGeometry relative="1" as="geometry">
            <mxPoint x="320" y="600" as="targetPoint" />
          </mxGeometry>
        </mxCell>
        <mxCell id="LV1sZ-8iKnYQwLrWcCL2-4" value="Display &quot;Found in&quot; + SequentialSearch( )" style="shape=parallelogram;perimeter=parallelogramPerimeter;whiteSpace=wrap;html=1;fixedSize=1;" vertex="1" parent="mvioNwK95yMqdUQ73LqQ-36">
          <mxGeometry x="222.5" y="420" width="195" height="60" as="geometry" />
        </mxCell>
        <mxCell id="LV1sZ-8iKnYQwLrWcCL2-7" style="edgeStyle=orthogonalEdgeStyle;rounded=0;orthogonalLoop=1;jettySize=auto;html=1;" edge="1" parent="mvioNwK95yMqdUQ73LqQ-36" source="LV1sZ-8iKnYQwLrWcCL2-5">
          <mxGeometry relative="1" as="geometry">
            <mxPoint x="755" y="170" as="targetPoint" />
          </mxGeometry>
        </mxCell>
        <mxCell id="LV1sZ-8iKnYQwLrWcCL2-5" value="SequentialSearch( )" style="ellipse;whiteSpace=wrap;html=1;" vertex="1" parent="mvioNwK95yMqdUQ73LqQ-36">
          <mxGeometry x="690" y="60" width="130" height="30" as="geometry" />
        </mxCell>
        <mxCell id="LV1sZ-8iKnYQwLrWcCL2-8" style="edgeStyle=orthogonalEdgeStyle;rounded=0;orthogonalLoop=1;jettySize=auto;html=1;" edge="1" parent="mvioNwK95yMqdUQ73LqQ-36" source="LV1sZ-8iKnYQwLrWcCL2-6">
          <mxGeometry relative="1" as="geometry">
            <mxPoint x="755" y="290" as="targetPoint" />
          </mxGeometry>
        </mxCell>
        <mxCell id="LV1sZ-8iKnYQwLrWcCL2-6" value="Declare &amp;amp; Init&amp;nbsp;&lt;div&gt;Output = -1&lt;/div&gt;" style="rounded=0;whiteSpace=wrap;html=1;" vertex="1" parent="mvioNwK95yMqdUQ73LqQ-36">
          <mxGeometry x="650" y="170" width="210" height="60" as="geometry" />
        </mxCell>
        <mxCell id="LV1sZ-8iKnYQwLrWcCL2-41" style="edgeStyle=orthogonalEdgeStyle;rounded=0;orthogonalLoop=1;jettySize=auto;html=1;" edge="1" parent="mvioNwK95yMqdUQ73LqQ-36" source="LV1sZ-8iKnYQwLrWcCL2-9">
          <mxGeometry relative="1" as="geometry">
            <mxPoint x="755" y="400" as="targetPoint" />
          </mxGeometry>
        </mxCell>
        <mxCell id="LV1sZ-8iKnYQwLrWcCL2-9" value="i = 0" style="rounded=0;whiteSpace=wrap;html=1;" vertex="1" parent="mvioNwK95yMqdUQ73LqQ-36">
          <mxGeometry x="695" y="290" width="120" height="60" as="geometry" />
        </mxCell>
        <mxCell id="LV1sZ-8iKnYQwLrWcCL2-15" style="edgeStyle=orthogonalEdgeStyle;rounded=0;orthogonalLoop=1;jettySize=auto;html=1;" edge="1" parent="mvioNwK95yMqdUQ73LqQ-36" source="LV1sZ-8iKnYQwLrWcCL2-11">
          <mxGeometry relative="1" as="geometry">
            <mxPoint x="755" y="610" as="targetPoint" />
          </mxGeometry>
        </mxCell>
        <mxCell id="LV1sZ-8iKnYQwLrWcCL2-46" style="edgeStyle=orthogonalEdgeStyle;rounded=0;orthogonalLoop=1;jettySize=auto;html=1;entryX=0.5;entryY=0;entryDx=0;entryDy=0;" edge="1" parent="mvioNwK95yMqdUQ73LqQ-36" source="LV1sZ-8iKnYQwLrWcCL2-11" target="LV1sZ-8iKnYQwLrWcCL2-45">
          <mxGeometry relative="1" as="geometry">
            <Array as="points">
              <mxPoint x="890" y="500" />
              <mxPoint x="890" y="880" />
            </Array>
          </mxGeometry>
        </mxCell>
        <mxCell id="LV1sZ-8iKnYQwLrWcCL2-11" value="i &amp;lt; n" style="rhombus;whiteSpace=wrap;html=1;" vertex="1" parent="mvioNwK95yMqdUQ73LqQ-36">
          <mxGeometry x="715" y="460" width="80" height="80" as="geometry" />
        </mxCell>
        <mxCell id="LV1sZ-8iKnYQwLrWcCL2-13" value="&lt;font data-font-src=&quot;https://fonts.googleapis.com/css?family=Sarabun&quot; face=&quot;Sarabun&quot;&gt;return i&lt;/font&gt;" style="ellipse;whiteSpace=wrap;html=1;" vertex="1" parent="mvioNwK95yMqdUQ73LqQ-36">
          <mxGeometry x="690" y="770" width="130" height="30" as="geometry" />
        </mxCell>
        <mxCell id="LV1sZ-8iKnYQwLrWcCL2-17" style="edgeStyle=orthogonalEdgeStyle;rounded=0;orthogonalLoop=1;jettySize=auto;html=1;" edge="1" parent="mvioNwK95yMqdUQ73LqQ-36" source="LV1sZ-8iKnYQwLrWcCL2-16">
          <mxGeometry relative="1" as="geometry">
            <mxPoint x="755" y="770" as="targetPoint" />
          </mxGeometry>
        </mxCell>
        <mxCell id="LV1sZ-8iKnYQwLrWcCL2-44" style="edgeStyle=orthogonalEdgeStyle;rounded=0;orthogonalLoop=1;jettySize=auto;html=1;entryX=0;entryY=0.5;entryDx=0;entryDy=0;" edge="1" parent="mvioNwK95yMqdUQ73LqQ-36" source="LV1sZ-8iKnYQwLrWcCL2-16" target="LV1sZ-8iKnYQwLrWcCL2-42">
          <mxGeometry relative="1" as="geometry">
            <Array as="points">
              <mxPoint x="610" y="650" />
              <mxPoint x="610" y="410" />
            </Array>
          </mxGeometry>
        </mxCell>
        <mxCell id="LV1sZ-8iKnYQwLrWcCL2-16" value="data[ i ] == 8" style="rhombus;whiteSpace=wrap;html=1;" vertex="1" parent="mvioNwK95yMqdUQ73LqQ-36">
          <mxGeometry x="715" y="610" width="80" height="80" as="geometry" />
        </mxCell>
        <mxCell id="LV1sZ-8iKnYQwLrWcCL2-18" value="Yes" style="text;html=1;align=center;verticalAlign=middle;resizable=0;points=[];autosize=1;strokeColor=none;fillColor=none;" vertex="1" parent="mvioNwK95yMqdUQ73LqQ-36">
          <mxGeometry x="705" y="690" width="40" height="30" as="geometry" />
        </mxCell>
        <mxCell id="LV1sZ-8iKnYQwLrWcCL2-39" value="Yes" style="text;html=1;align=center;verticalAlign=middle;resizable=0;points=[];autosize=1;strokeColor=none;fillColor=none;" vertex="1" parent="mvioNwK95yMqdUQ73LqQ-36">
          <mxGeometry x="755" y="530" width="40" height="30" as="geometry" />
        </mxCell>
        <mxCell id="LV1sZ-8iKnYQwLrWcCL2-43" style="edgeStyle=orthogonalEdgeStyle;rounded=0;orthogonalLoop=1;jettySize=auto;html=1;entryX=0.5;entryY=0;entryDx=0;entryDy=0;" edge="1" parent="mvioNwK95yMqdUQ73LqQ-36" source="LV1sZ-8iKnYQwLrWcCL2-42" target="LV1sZ-8iKnYQwLrWcCL2-11">
          <mxGeometry relative="1" as="geometry" />
        </mxCell>
        <mxCell id="LV1sZ-8iKnYQwLrWcCL2-42" value="" style="ellipse;whiteSpace=wrap;html=1;aspect=fixed;" vertex="1" parent="mvioNwK95yMqdUQ73LqQ-36">
          <mxGeometry x="745" y="400" width="20" height="20" as="geometry" />
        </mxCell>
        <mxCell id="LV1sZ-8iKnYQwLrWcCL2-45" value="&lt;font data-font-src=&quot;https://fonts.googleapis.com/css?family=Sarabun&quot; face=&quot;Sarabun&quot;&gt;return Output&lt;/font&gt;" style="ellipse;whiteSpace=wrap;html=1;" vertex="1" parent="mvioNwK95yMqdUQ73LqQ-36">
          <mxGeometry x="685" y="970" width="130" height="30" as="geometry" />
        </mxCell>
        <mxCell id="LV1sZ-8iKnYQwLrWcCL2-47" value="No" style="text;html=1;align=center;verticalAlign=middle;resizable=0;points=[];autosize=1;strokeColor=none;fillColor=none;" vertex="1" parent="mvioNwK95yMqdUQ73LqQ-36">
          <mxGeometry x="800" y="460" width="40" height="30" as="geometry" />
        </mxCell>
        <mxCell id="LV1sZ-8iKnYQwLrWcCL2-48" value="No" style="text;html=1;align=center;verticalAlign=middle;resizable=0;points=[];autosize=1;strokeColor=none;fillColor=none;" vertex="1" parent="mvioNwK95yMqdUQ73LqQ-36">
          <mxGeometry x="685" y="600" width="40" height="30" as="geometry" />
        </mxCell>
        <mxCell id="LV1sZ-8iKnYQwLrWcCL2-49" value="i++" style="rounded=0;whiteSpace=wrap;html=1;" vertex="1" parent="mvioNwK95yMqdUQ73LqQ-36">
          <mxGeometry x="550" y="512.5" width="120" height="65" as="geometry" />
        </mxCell>
        <mxCell id="LV1sZ-8iKnYQwLrWcCL2-51" value="&lt;font data-font-src=&quot;https://fonts.googleapis.com/css?family=Sarabun&quot; face=&quot;Sarabun&quot;&gt;End&lt;/font&gt;" style="ellipse;whiteSpace=wrap;html=1;" vertex="1" parent="mvioNwK95yMqdUQ73LqQ-36">
          <mxGeometry x="255" y="600" width="130" height="30" as="geometry" />
        </mxCell>
      </root>
    </mxGraphModel>
  </diagram>
</mxfile>
